<mxfile host="65bd71144e">
    <diagram id="jfEf3Tc9CmFoyfyKw8Jm" name="ページ1">
        <mxGraphModel dx="2217" dy="1432" grid="1" gridSize="10" guides="1" tooltips="1" connect="1" arrows="1" fold="1" page="1" pageScale="1" pageWidth="827" pageHeight="1169" math="0" shadow="0">
            <root>
                <mxCell id="0"/>
                <mxCell id="1" parent="0"/>
                <mxCell id="2" value="" style="edgeStyle=none;orthogonalLoop=1;jettySize=auto;html=1;jumpStyle=arc;" edge="1" parent="1">
                    <mxGeometry width="100" relative="1" as="geometry">
                        <mxPoint x="720" y="760" as="sourcePoint"/>
                        <mxPoint x="880" y="760" as="targetPoint"/>
                        <Array as="points"/>
                    </mxGeometry>
                </mxCell>
                <mxCell id="3" value="s_requestDontStop" style="text;html=1;align=center;verticalAlign=middle;resizable=0;points=[];autosize=1;strokeColor=none;fillColor=none;" vertex="1" parent="1">
                    <mxGeometry x="580" y="745" width="130" height="30" as="geometry"/>
                </mxCell>
                <mxCell id="4" value="map_to&lt;br&gt;true" style="shape=offPageConnector;whiteSpace=wrap;html=1;direction=north;" vertex="1" parent="1">
                    <mxGeometry x="880" y="720" width="80" height="80" as="geometry"/>
                </mxCell>
                <mxCell id="5" value="" style="edgeStyle=none;orthogonalLoop=1;jettySize=auto;html=1;jumpStyle=arc;" edge="1" parent="1">
                    <mxGeometry width="100" relative="1" as="geometry">
                        <mxPoint x="720" y="880" as="sourcePoint"/>
                        <mxPoint x="880" y="880" as="targetPoint"/>
                        <Array as="points"/>
                    </mxGeometry>
                </mxCell>
                <mxCell id="6" value="s_unRequestDontStop" style="text;html=1;align=center;verticalAlign=middle;resizable=0;points=[];autosize=1;strokeColor=none;fillColor=none;" vertex="1" parent="1">
                    <mxGeometry x="570" y="865" width="140" height="30" as="geometry"/>
                </mxCell>
                <mxCell id="7" value="map_to&lt;br&gt;false" style="shape=offPageConnector;whiteSpace=wrap;html=1;direction=north;" vertex="1" parent="1">
                    <mxGeometry x="880" y="840" width="80" height="80" as="geometry"/>
                </mxCell>
                <mxCell id="8" value="" style="edgeStyle=none;orthogonalLoop=1;jettySize=auto;html=1;jumpStyle=arc;" edge="1" parent="1">
                    <mxGeometry width="100" relative="1" as="geometry">
                        <mxPoint x="960" y="759.5" as="sourcePoint"/>
                        <mxPoint x="1080" y="800" as="targetPoint"/>
                        <Array as="points">
                            <mxPoint x="1000" y="760"/>
                            <mxPoint x="1000" y="800"/>
                        </Array>
                    </mxGeometry>
                </mxCell>
                <mxCell id="9" value="" style="edgeStyle=none;orthogonalLoop=1;jettySize=auto;html=1;jumpStyle=arc;" edge="1" parent="1" source="7">
                    <mxGeometry width="100" relative="1" as="geometry">
                        <mxPoint x="970" y="769.5" as="sourcePoint"/>
                        <mxPoint x="1080" y="840" as="targetPoint"/>
                        <Array as="points">
                            <mxPoint x="1000" y="880"/>
                            <mxPoint x="1000" y="840"/>
                        </Array>
                    </mxGeometry>
                </mxCell>
                <mxCell id="10" value="or_else" style="shape=trapezoid;perimeter=trapezoidPerimeter;whiteSpace=wrap;html=1;fixedSize=1;direction=south;" vertex="1" parent="1">
                    <mxGeometry x="1080" y="760" width="40" height="120" as="geometry"/>
                </mxCell>
                <mxCell id="11" value="" style="edgeStyle=none;orthogonalLoop=1;jettySize=auto;html=1;jumpStyle=arc;" edge="1" parent="1">
                    <mxGeometry width="100" relative="1" as="geometry">
                        <mxPoint x="1120" y="819.5" as="sourcePoint"/>
                        <mxPoint x="1200" y="820" as="targetPoint"/>
                        <Array as="points"/>
                    </mxGeometry>
                </mxCell>
                <mxCell id="12" value="hold&lt;br&gt;false" style="rounded=1;whiteSpace=wrap;html=1;" vertex="1" parent="1">
                    <mxGeometry x="1200" y="790" width="80" height="60" as="geometry"/>
                </mxCell>
                <mxCell id="14" value="c_dontStopRequested" style="text;html=1;align=center;verticalAlign=middle;resizable=0;points=[];autosize=1;strokeColor=none;fillColor=none;" vertex="1" parent="1">
                    <mxGeometry x="1340" y="785" width="140" height="30" as="geometry"/>
                </mxCell>
                <mxCell id="15" value="" style="edgeStyle=none;orthogonalLoop=1;jettySize=auto;html=1;endArrow=diamondThin;endFill=0;endSize=12;" edge="1" parent="1" source="12">
                    <mxGeometry width="100" relative="1" as="geometry">
                        <mxPoint x="1340" y="880" as="sourcePoint"/>
                        <mxPoint x="1480" y="820" as="targetPoint"/>
                        <Array as="points"/>
                    </mxGeometry>
                </mxCell>
                <mxCell id="16" value="" style="edgeStyle=none;orthogonalLoop=1;jettySize=auto;html=1;endArrow=diamondThin;endFill=0;endSize=12;" edge="1" parent="1" target="31">
                    <mxGeometry width="100" relative="1" as="geometry">
                        <mxPoint x="720" y="1000" as="sourcePoint"/>
                        <mxPoint x="920" y="1000" as="targetPoint"/>
                        <Array as="points"/>
                    </mxGeometry>
                </mxCell>
                <mxCell id="18" value="c_mustStopFromGBA" style="text;html=1;align=center;verticalAlign=middle;resizable=0;points=[];autosize=1;strokeColor=none;fillColor=none;" vertex="1" parent="1">
                    <mxGeometry x="570" y="980" width="140" height="30" as="geometry"/>
                </mxCell>
                <mxCell id="19" value="c_mustStopFromLC" style="text;html=1;align=center;verticalAlign=middle;resizable=0;points=[];autosize=1;strokeColor=none;fillColor=none;" vertex="1" parent="1">
                    <mxGeometry x="575" y="1060" width="130" height="30" as="geometry"/>
                </mxCell>
                <mxCell id="20" value="" style="edgeStyle=none;orthogonalLoop=1;jettySize=auto;html=1;endArrow=diamondThin;endFill=0;endSize=12;" edge="1" parent="1" target="32">
                    <mxGeometry width="100" relative="1" as="geometry">
                        <mxPoint x="720" y="1080" as="sourcePoint"/>
                        <mxPoint x="880" y="1080" as="targetPoint"/>
                        <Array as="points"/>
                    </mxGeometry>
                </mxCell>
                <mxCell id="22" value="s_mustStop" style="text;html=1;align=center;verticalAlign=middle;resizable=0;points=[];autosize=1;strokeColor=none;fillColor=none;" vertex="1" parent="1">
                    <mxGeometry x="1270" y="990" width="90" height="30" as="geometry"/>
                </mxCell>
                <mxCell id="23" value="lift" style="shape=trapezoid;perimeter=trapezoidPerimeter;whiteSpace=wrap;html=1;fixedSize=1;direction=south;" vertex="1" parent="1">
                    <mxGeometry x="1480" y="740" width="40" height="120" as="geometry"/>
                </mxCell>
                <mxCell id="24" value="" style="edgeStyle=none;orthogonalLoop=1;jettySize=auto;html=1;endArrow=diamondThin;endFill=0;endSize=12;" edge="1" parent="1" source="44">
                    <mxGeometry width="100" relative="1" as="geometry">
                        <mxPoint x="1760" y="815" as="sourcePoint"/>
                        <mxPoint x="1480" y="775" as="targetPoint"/>
                        <Array as="points">
                            <mxPoint x="1800" y="1020"/>
                            <mxPoint x="1800" y="680"/>
                            <mxPoint x="1320" y="680"/>
                            <mxPoint x="1320" y="775"/>
                        </Array>
                    </mxGeometry>
                </mxCell>
                <mxCell id="25" value="c_isLMStopped" style="text;html=1;align=center;verticalAlign=middle;resizable=0;points=[];autosize=1;strokeColor=none;fillColor=none;" vertex="1" parent="1">
                    <mxGeometry x="1360" y="740" width="110" height="30" as="geometry"/>
                </mxCell>
                <mxCell id="27" value="" style="edgeStyle=none;orthogonalLoop=1;jettySize=auto;html=1;endArrow=diamondThin;endFill=0;endSize=12;" edge="1" parent="1" target="42">
                    <mxGeometry width="100" relative="1" as="geometry">
                        <mxPoint x="1520" y="800" as="sourcePoint"/>
                        <mxPoint x="1560" y="960" as="targetPoint"/>
                        <Array as="points">
                            <mxPoint x="1560" y="800"/>
                        </Array>
                    </mxGeometry>
                </mxCell>
                <mxCell id="28" value="c_canStop" style="text;html=1;align=center;verticalAlign=middle;resizable=0;points=[];autosize=1;strokeColor=none;fillColor=none;" vertex="1" parent="1">
                    <mxGeometry x="1560" y="880" width="80" height="30" as="geometry"/>
                </mxCell>
                <mxCell id="30" value="" style="edgeStyle=none;orthogonalLoop=1;jettySize=auto;html=1;endArrow=diamondThin;endFill=0;endSize=12;entryX=-0.041;entryY=0.561;entryDx=0;entryDy=0;entryPerimeter=0;" edge="1" parent="1" target="45">
                    <mxGeometry width="100" relative="1" as="geometry">
                        <mxPoint x="1750" y="1020" as="sourcePoint"/>
                        <mxPoint x="1910" y="1020.5" as="targetPoint"/>
                        <Array as="points"/>
                    </mxGeometry>
                </mxCell>
                <mxCell id="31" value="snapshot" style="shape=offPageConnector;whiteSpace=wrap;html=1;direction=north;" vertex="1" parent="1">
                    <mxGeometry x="880" y="980" width="80" height="40" as="geometry"/>
                </mxCell>
                <mxCell id="32" value="snapshot" style="shape=offPageConnector;whiteSpace=wrap;html=1;direction=north;" vertex="1" parent="1">
                    <mxGeometry x="880" y="1060" width="80" height="40" as="geometry"/>
                </mxCell>
                <mxCell id="33" value="" style="edgeStyle=none;orthogonalLoop=1;jettySize=auto;html=1;jumpStyle=arc;" edge="1" parent="1" target="31">
                    <mxGeometry width="100" relative="1" as="geometry">
                        <mxPoint x="760" y="1240" as="sourcePoint"/>
                        <mxPoint x="800" y="1140.5" as="targetPoint"/>
                        <Array as="points">
                            <mxPoint x="800" y="1240"/>
                            <mxPoint x="800" y="1040"/>
                            <mxPoint x="920" y="1040"/>
                        </Array>
                    </mxGeometry>
                </mxCell>
                <mxCell id="34" value="s_updateState" style="text;html=1;align=center;verticalAlign=middle;resizable=0;points=[];autosize=1;strokeColor=none;fillColor=none;" vertex="1" parent="1">
                    <mxGeometry x="590" y="1220" width="100" height="30" as="geometry"/>
                </mxCell>
                <mxCell id="35" value="" style="edgeStyle=none;orthogonalLoop=1;jettySize=auto;html=1;jumpStyle=arc;" edge="1" parent="1" target="32">
                    <mxGeometry width="100" relative="1" as="geometry">
                        <mxPoint x="760" y="1240" as="sourcePoint"/>
                        <mxPoint x="860" y="1140" as="targetPoint"/>
                        <Array as="points">
                            <mxPoint x="920" y="1240"/>
                        </Array>
                    </mxGeometry>
                </mxCell>
                <mxCell id="36" value="" style="edgeStyle=none;orthogonalLoop=1;jettySize=auto;html=1;jumpStyle=arc;startArrow=none;" edge="1" parent="1" source="37">
                    <mxGeometry width="100" relative="1" as="geometry">
                        <mxPoint x="1020" y="1010" as="sourcePoint"/>
                        <mxPoint x="1100" y="1010.5" as="targetPoint"/>
                        <Array as="points"/>
                    </mxGeometry>
                </mxCell>
                <mxCell id="38" value="" style="edgeStyle=none;orthogonalLoop=1;jettySize=auto;html=1;jumpStyle=arc;entryX=0.667;entryY=1.06;entryDx=0;entryDy=0;entryPerimeter=0;" edge="1" parent="1" target="37">
                    <mxGeometry width="100" relative="1" as="geometry">
                        <mxPoint x="960" y="1082" as="sourcePoint"/>
                        <mxPoint x="1090" y="1060" as="targetPoint"/>
                        <Array as="points">
                            <mxPoint x="1000" y="1080"/>
                            <mxPoint x="1000" y="1040"/>
                        </Array>
                    </mxGeometry>
                </mxCell>
                <mxCell id="37" value="merge" style="shape=trapezoid;perimeter=trapezoidPerimeter;whiteSpace=wrap;html=1;fixedSize=1;direction=south;" vertex="1" parent="1">
                    <mxGeometry x="1080" y="960" width="40" height="120" as="geometry"/>
                </mxCell>
                <mxCell id="40" value="" style="edgeStyle=none;orthogonalLoop=1;jettySize=auto;html=1;jumpStyle=arc;entryX=0.328;entryY=1.083;entryDx=0;entryDy=0;entryPerimeter=0;" edge="1" parent="1" target="37">
                    <mxGeometry width="100" relative="1" as="geometry">
                        <mxPoint x="960" y="999.7200000000003" as="sourcePoint"/>
                        <mxPoint x="1040" y="1000.22" as="targetPoint"/>
                        <Array as="points"/>
                    </mxGeometry>
                </mxCell>
                <mxCell id="41" value="" style="edgeStyle=none;orthogonalLoop=1;jettySize=auto;html=1;jumpStyle=arc;entryX=0.5;entryY=0;entryDx=0;entryDy=0;" edge="1" parent="1" source="37" target="42">
                    <mxGeometry width="100" relative="1" as="geometry">
                        <mxPoint x="1140" y="999.55" as="sourcePoint"/>
                        <mxPoint x="1450" y="1020" as="targetPoint"/>
                        <Array as="points"/>
                    </mxGeometry>
                </mxCell>
                <mxCell id="42" value="snapshot" style="shape=offPageConnector;whiteSpace=wrap;html=1;direction=north;" vertex="1" parent="1">
                    <mxGeometry x="1520" y="1000" width="80" height="40" as="geometry"/>
                </mxCell>
                <mxCell id="43" value="" style="edgeStyle=none;orthogonalLoop=1;jettySize=auto;html=1;jumpStyle=arc;" edge="1" parent="1">
                    <mxGeometry width="100" relative="1" as="geometry">
                        <mxPoint x="1600" y="1020" as="sourcePoint"/>
                        <mxPoint x="1680" y="1020.5" as="targetPoint"/>
                        <Array as="points"/>
                    </mxGeometry>
                </mxCell>
                <mxCell id="44" value="hold&lt;br&gt;false" style="rounded=1;whiteSpace=wrap;html=1;" vertex="1" parent="1">
                    <mxGeometry x="1680" y="990" width="80" height="60" as="geometry"/>
                </mxCell>
                <mxCell id="45" value="c_isLMStopped" style="text;html=1;align=center;verticalAlign=middle;resizable=0;points=[];autosize=1;strokeColor=none;fillColor=none;" vertex="1" parent="1">
                    <mxGeometry x="1925" y="1005" width="110" height="30" as="geometry"/>
                </mxCell>
                <mxCell id="46" value="" style="edgeStyle=none;orthogonalLoop=1;jettySize=auto;html=1;jumpStyle=arc;" edge="1" parent="1" target="49">
                    <mxGeometry width="100" relative="1" as="geometry">
                        <mxPoint x="720" y="1240" as="sourcePoint"/>
                        <mxPoint x="1550" y="1240.5" as="targetPoint"/>
                        <Array as="points">
                            <mxPoint x="860" y="1240.5"/>
                        </Array>
                    </mxGeometry>
                </mxCell>
                <mxCell id="47" value="" style="edgeStyle=none;orthogonalLoop=1;jettySize=auto;html=1;endArrow=diamondThin;endFill=0;endSize=12;exitX=1;exitY=0.5;exitDx=0;exitDy=0;exitPerimeter=0;entryX=1.091;entryY=0.659;entryDx=0;entryDy=0;entryPerimeter=0;" edge="1" parent="1" source="44" target="49">
                    <mxGeometry width="100" relative="1" as="geometry">
                        <mxPoint x="1760" y="1030.0000000000002" as="sourcePoint"/>
                        <mxPoint x="1800" y="1160" as="targetPoint"/>
                        <Array as="points">
                            <mxPoint x="1800" y="1020"/>
                        </Array>
                    </mxGeometry>
                </mxCell>
                <mxCell id="48" value="" style="edgeStyle=none;orthogonalLoop=1;jettySize=auto;html=1;endArrow=diamondThin;endFill=0;endSize=12;entryX=1.023;entryY=0.318;entryDx=0;entryDy=0;entryPerimeter=0;" edge="1" parent="1" target="49">
                    <mxGeometry width="100" relative="1" as="geometry">
                        <mxPoint x="720" y="1080" as="sourcePoint"/>
                        <mxPoint x="1340" y="1160" as="targetPoint"/>
                        <Array as="points">
                            <mxPoint x="760" y="1080"/>
                            <mxPoint x="760" y="1160"/>
                            <mxPoint x="1760" y="1160"/>
                        </Array>
                    </mxGeometry>
                </mxCell>
                <mxCell id="49" value="snapshot" style="shape=offPageConnector;whiteSpace=wrap;html=1;direction=north;" vertex="1" parent="1">
                    <mxGeometry x="1720" y="1220" width="120" height="40" as="geometry"/>
                </mxCell>
                <mxCell id="50" value="" style="edgeStyle=none;orthogonalLoop=1;jettySize=auto;html=1;jumpStyle=arc;" edge="1" parent="1">
                    <mxGeometry width="100" relative="1" as="geometry">
                        <mxPoint x="1840" y="1239.5500000000002" as="sourcePoint"/>
                        <mxPoint x="1920" y="1240.05" as="targetPoint"/>
                        <Array as="points"/>
                    </mxGeometry>
                </mxCell>
                <mxCell id="51" value="s_emptyQueue" style="text;html=1;align=center;verticalAlign=middle;resizable=0;points=[];autosize=1;strokeColor=none;fillColor=none;" vertex="1" parent="1">
                    <mxGeometry x="1930" y="1225" width="100" height="30" as="geometry"/>
                </mxCell>
            </root>
        </mxGraphModel>
    </diagram>
</mxfile>